<svg width="511" height="511.999" xmlns="http://www.w3.org/2000/svg">

 <g>
  <title>Layer 1</title>
  <path fill="#ffffff" id="svg_1" d="m498.69922,222.69531c-0.01563,-0.01172 -0.02734,-0.02734 -0.03906,-0.03906l-208.85547,-208.84766c-8.90235,-8.90625 -20.73828,-13.80859 -33.32813,-13.80859c-12.58984,0 -24.42578,4.90234 -33.33203,13.80859l-208.74609,208.74219c-0.07031,0.07031 -0.14453,0.14453 -0.21094,0.21485c-18.28125,18.38671 -18.25,48.21875 0.08984,66.55859c8.37891,8.38281 19.44141,13.23437 31.27344,13.74609c0.48438,0.04688 0.96875,0.07031 1.45703,0.07031l8.32032,0l0,153.69532c0,30.41797 24.75,55.16406 55.16796,55.16406l81.71094,0c8.28516,0 15,-6.71875 15,-15l0,-120.5c0,-13.87891 11.29297,-25.16797 25.17188,-25.16797l48.19531,0c13.87891,0 25.16797,11.28906 25.16797,25.16797l0,120.5c0,8.28125 6.71484,15 15,15l81.71094,0c30.42187,0 55.16796,-24.74609 55.16796,-55.16406l0,-153.69532l7.71875,0c12.58594,0 24.42188,-4.90234 33.33204,-13.8125c18.35937,-18.36718 18.36718,-48.2539 0.02734,-66.63281zm-21.24219,45.42188c-3.23828,3.23828 -7.54297,5.02344 -12.11719,5.02344l-22.71875,0c-8.28515,0 -15,6.71484 -15,15l0,168.69531c0,13.875 -11.28906,25.16406 -25.16796,25.16406l-66.71094,0l0,-105.5c0,-30.41797 -24.7461,-55.16797 -55.16797,-55.16797l-48.19531,0c-30.42188,0 -55.17188,24.75 -55.17188,55.16797l0,105.5l-66.71094,0c-13.875,0 -25.16797,-11.28906 -25.16797,-25.16406l0,-168.69531c0,-8.28516 -6.71484,-15 -15,-15l-22.32812,0c-0.23438,-0.01563 -0.46484,-0.02735 -0.70313,-0.03125c-4.46875,-0.07813 -8.66015,-1.85157 -11.80078,-4.9961c-6.67968,-6.67969 -6.67968,-17.55078 0,-24.23437c0.00391,0 0.00391,-0.00391 0.00782,-0.00782l0.01171,-0.01172l208.84766,-208.83984c3.23438,-3.23828 7.53516,-5.01953 12.11328,-5.01953c4.57422,0 8.875,1.78125 12.11328,5.01953l208.80079,208.79688c0.03125,0.03125 0.0664,0.0625 0.09765,0.09375c6.64453,6.6914 6.63281,17.53906 -0.03125,24.20703zm0,0"/>
 </g>
</svg>