<svg width="490.66667" height="490" xmlns="http://www.w3.org/2000/svg">

 <g>
  <title>Layer 1</title>
  <path fill="#e35d5d" id="svg_1" d="m325.33203,251l-309.33203,0c-8.83203,0 -16,-7.16797 -16,-16s7.16797,-16 16,-16l309.33203,0c8.83203,0 16,7.16797 16,16s-7.16797,16 -16,16zm0,0"/>
  <path fill="#e35d5d" id="svg_2" d="m240,336.33203c-4.09766,0 -8.19141,-1.55469 -11.30859,-4.6914c-6.25,-6.25 -6.25,-16.38282 0,-22.63672l74.02734,-74.02344l-74.02734,-74.02734c-6.25,-6.25 -6.25,-16.38672 0,-22.63672c6.2539,-6.25 16.38672,-6.25 22.63672,0l85.33203,85.33593c6.25,6.25 6.25,16.38282 0,22.63282l-85.33203,85.33203c-3.13672,3.16015 -7.23047,4.71484 -11.32813,4.71484zm0,0"/>
  <path fill="#e35d5d" id="svg_3" d="m256,469.66797c-97.08984,0 -182.80469,-58.41016 -218.41016,-148.82422c-3.24218,-8.19141 0.8086,-17.49219 9.02344,-20.73437c8.19141,-3.19922 17.51563,0.78906 20.75781,9.04687c30.74219,78.05859 104.78907,128.51172 188.62891,128.51172c111.74219,0 202.66797,-90.92578 202.66797,-202.66797s-90.92578,-202.66797 -202.66797,-202.66797c-83.83984,0 -157.88672,50.45313 -188.62891,128.51172c-3.26562,8.25781 -12.5664,12.24609 -20.75781,9.04687c-8.21484,-3.24218 -12.26562,-12.54296 -9.02344,-20.73437c35.60547,-90.41406 121.32032,-148.82422 218.41016,-148.82422c129.38672,0 234.66797,105.28125 234.66797,234.66797s-105.28125,234.66797 -234.66797,234.66797zm0,0"/>
 </g>
</svg>