<svg width="512" height="512" xmlns="http://www.w3.org/2000/svg">

 <g>
  <title>Layer 1</title>
  <g id="svg_1">
   <g id="svg_2">
    <path fill="#ffffff" id="svg_3" d="m437.02,330.98c-27.883,-27.882 -61.071,-48.523 -97.281,-61.018c38.782,-26.711 64.261,-71.414 64.261,-121.962c0,-81.607 -66.393,-148 -148,-148s-148,66.393 -148,148c0,50.548 25.479,95.251 64.262,121.962c-36.21,12.495 -69.398,33.136 -97.281,61.018c-48.352,48.353 -74.981,112.64 -74.981,181.02l40,0c0,-119.103 96.897,-216 216,-216s216,96.897 216,216l40,0c0,-68.38 -26.629,-132.667 -74.98,-181.02zm-181.02,-74.98c-59.551,0 -108,-48.448 -108,-108s48.449,-108 108,-108c59.551,0 108,48.448 108,108s-48.449,108 -108,108z"/>
   </g>
  </g>
  <g id="svg_4"/>
  <g id="svg_5"/>
  <g id="svg_6"/>
  <g id="svg_7"/>
  <g id="svg_8"/>
  <g id="svg_9"/>
  <g id="svg_10"/>
  <g id="svg_11"/>
  <g id="svg_12"/>
  <g id="svg_13"/>
  <g id="svg_14"/>
  <g id="svg_15"/>
  <g id="svg_16"/>
  <g id="svg_17"/>
  <g id="svg_18"/>
 </g>
</svg>